<svg enable-background="new 0 0 400 400" viewBox="0 0 400 400" xmlns="http://www.w3.org/2000/svg"><path d="m6.8 9.5c.6.3 1.3.7 2.1 1.1-.4.4-.7.8-.9 1.2-.7-.4-1.3-.8-1.8-1.1s-1.1-.6-1.6-.8c.2-.4.5-.8.7-1.2.4.2.8.5 1.5.8zm.9 6.9c-.3.6-.5 1.1-.7 1.7s-.4 1.1-.6 1.7c-.6-.4-1.1-.7-1.6-1 .7-1 1.2-1.8 1.5-2.4.3-.5.6-1.1.8-1.7.3-.6.5-1.2.8-1.8.3.3.8.6 1.3.8-.7 1.3-1.2 2.2-1.5 2.7zm.1-11c.4.3 1 .7 1.7 1.1-.5.2-.8.6-1.1 1.1-.5-.6-1-1-1.4-1.2s-.9-.6-1.5-.8c.2-.4.5-.7.9-1.1.5.3.9.6 1.4.9zm10.5 13.1c1 .4 2 .6 3.1.7-.4.4-.7.8-.8 1.3-.9-.2-1.9-.6-3-.9-1-.4-2-.9-2.8-1.6-.5.4-1.1.9-1.9 1.3s-1.9.9-3.3 1.2c-.1-.3-.5-.8-1.1-1.3 1 0 2.1-.3 3.2-.8 1.2-.5 1.9-1 2.3-1.7h-3.2c-.4 0-1 0-2 .1v-1.2c1 0 1.7.1 2 .1h3.3v-1h-2.3c-.2 0-.9 0-2 .1v-1.2c1.2 0 1.9.1 2 .1h2.3v-.8h-4.1c0-.7.1-1.2.1-1.6 0-.5 0-1.1-.1-1.8h4.1v-.7h-2.5c0-.6.1-1.1.1-1.6v-.6h-.5c-.4 0-1 0-1.8.1v-1.3c1.2 0 1.9.1 2.1.1h.2c0-.3 0-.8-.1-1.4h1.4c0 .6-.1 1-.1 1.4h3.4c0-.4 0-.8-.1-1.3h1.5c0 .4-.1.9-.1 1.3.7 0 1.5 0 2.5-.1v1.2c-1 0-1.8-.1-2.5-.1v.6c0 .3 0 .8.1 1.5h-2.5v.8h4.1c0 .7-.1 1.3-.1 1.8s0 1 .1 1.5h-4.1v.8h1.4c.8 0 1.8 0 2.9-.1v1.2c-1 0-1.9-.1-2.8-.1h-1.5v1h3.2c.3 0 1 0 2.1-.1v1.2c-1.1 0-1.8-.1-2.1-.1h-3.4l-.1.1c1.4 1 2.4 1.5 3.4 1.9zm-4.1-6.7v-1.3h-2.7v1.3zm2.2-4.1v-1.1h-3.4v1.1zm1.9 4.1v-1.3h-2.8v1.3z" fill="#fafbfa"/><path d="m37 6.7v2.3 5.4c1 0 1.8 0 2.2-.1v1.3c-.6 0-1.5-.1-2.5-.1h-11.9c-.7 0-1.3 0-1.8.1v-1.3c.5 0 1.1.1 2 .1v-5.2c0-1 0-1.8-.1-2.5h3.7c0-1.3 0-2.1-.1-2.5h1.5c0 .4-.1 1.3-.1 2.5h2.2c0-1.2 0-2.1-.1-2.6h1.5c0 .4-.1 1.3-.1 2.6zm-12.3 13.7c-.3-.4-.7-.8-1.1-1.1 1.1-.4 2.1-.9 2.9-1.3.8-.5 1.5-1 2.1-1.6.4.4.9.8 1.3 1.1-2.5 1.4-4.2 2.4-5.2 2.9zm3.9-10.1v-2.4h-2.2v2.4zm0 4.1v-2.9h-2.2v2.9zm3.5-4.1v-2.4h-2.2v2.4zm0 4.1v-2.9h-2.2v2.9zm.4 2.9 1-1.1c.6.3 1.4.7 2.5 1.3s2 1.1 2.7 1.5c-.4.4-.8.8-1.1 1.3-.8-.8-2.5-1.7-5.1-3zm3.1-7v-2.4h-2.1v2.4zm0 4.1v-2.9h-2.1v2.9z" fill="#fafbfa"/><g fill="#010103"><path d="m216.11 319.39c1.03.49 2.1.99 3.48 1.65-2.97 6.87 2.91 14.73-3.1 21.61 4.42 1.54 3.51 4.49 2.57 7.85-.64 2.29-.13 4.88-.27 7.33-.09 1.53-.28 3.09-.66 4.58-.55 2.14-1.9 3.92-.05 6.46.7.96-1.23 3.84-1.96 5.84-1.36-.69-2.94-1.15-4.05-2.13-3.93-3.49-4.97-7.9-4.84-13.18.34-13.76.02-27.54.19-41.31.04-2.94-1.23-4.5-3.73-4.35-5.53.32-11.54 0-16.39 2.13-3.88 1.7-6.36 6.62-9.39 10.18-.55.65-.77 1.58-.87 1.8-2.21 0-4.03-.16-5.81.07-.8.1-1.5.98-2.25 1.5.61.67 1.19 1.38 1.86 1.98.47.43 1.08.71 1.77 1.14-.42 1.15-.66 2.27-1.21 3.2-3.28 5.56-3.07 11.43-2.19 17.56.42 2.9-.14 5.97-.54 8.92-.12.84-1.24 2.12-1.95 2.16-1.27.06-3.09-.27-3.78-1.15-5.22-6.6-7.76-13.92-5.86-22.52 1.4-6.33 2.13-12.8 3.41-19.15.35-1.73 1.33-3.56 2.54-4.83 3.86-4.04 7.73-8.13 12.03-11.68 6.23-5.14 13.86-6.37 21.71-6.7 2.89-.12 5.77-.62 8.63-1.07 1.89-.3 2.79-1.31 2.71-3.47-.49-13.53-.86-27.06-1.24-40.59-.06-2.23.14-4.47.05-6.7-.21-5.1-.74-10.2-.73-15.3.01-5.58.63-11.16.69-16.75.03-2.45-.67-4.91-1.03-7.37-.16-1.08-.55-2.19-.45-3.25.31-3.23.54-6.5 1.33-9.63.74-2.92 1.64-5.46-1.5-7.61-.62-.42-.58-2.06-.56-3.13.16-10.07 0-20.17.82-30.19.27-3.27 2.5-6.39.77-9.89 3.25-4.48.6-9.07.11-13.58-.11-1.02-1.61-1.91-2.53-2.8-.21-.2-.64-.16-.96-.25-6.13-1.81-11.66-2.57-16.91 3.07-2.76 2.97-7.5 4.31-11.55 5.83-5.53 2.07-10.35 5.06-14.93 8.74-4.72 3.78-8.8 8.71-15.43 9.59-.91.12-2 1.53-2.38 2.57-.95 2.6-1.58 5.33-2.26 8.02-.52 2.05-.57 4.32-1.53 6.12-.66 1.23-2.45 2.32-3.88 2.52-.91.13-2.44-1.24-3.06-2.3-8.37-14.2-12.8-29.7-14.73-45.96-2.41-20.32-1.99-40.45 5.17-59.93 1.69-4.6 3.72-9.15 6.24-13.32 1.31-2.17 4.05-3.48 6.15-5.18.39.16.77.33 1.16.49.29 2.58.86 5.17.8 7.75-.17 7.35 2.9 12.31 9.45 15.89 20.89 11.42 42.79 11.37 65.19 6.34.96-.21 2.03-1.54 2.36-2.57 1.02-3.19 1.89-6.45 2.48-9.74 2.7-15.08 12.55-24.44 25.46-30.81 11.54-5.69 24.1-8.4 36.95-8.74 4.92-.13 9.94 1.27 14.81 2.44 3.47.83 4.79 3.44 4.87 7.93-1.5.8-2.68 1.29-4.17-.59-.77-.97-2.78-.95-4.23-1.38-.2.33-.39.66-.59.99.77 1.13 1.6 2.23 2.28 3.41.89 1.54 1.79 3.11 2.47 4.75 2.41 5.87 2.07 7-2.34 11.45-3.88 3.91-8.04 7.23-13.07 9.73-2.68 1.33-4.53 4.46-6.54 6.95-1.77 2.19-3.66 3.84-6.68 3.83-4.35-.02-6.9-3.62-5.36-7.74.89-2.4 2.05-4.71 2.74-7.16 1.06-3.81-.93-6.66-4.89-6.33-4.89.41-10.17.19-13.85 4.61-.52.63-1.49 1.12-2.31 1.22-4.53.54-6.4 3.11-5.87 7.73-1.34.18-2.51.34-3.97.53.36 5.56-5.06 5.11-8.11 7.54 3.21 1.86 3.83 4.55 3.34 8.04-.8 5.73 2.15 8.28 7.87 7.39 5.19-.81 10.4-1.53 15.61-2.25 6.53-.9 11.24 2.54 11.18 9.2-.06 7.46-1.09 14.93-1.91 22.37-.09.85-1.44 1.86-2.43 2.28-6.26 2.66-12.89 2.43-19.5 2.16-.89-.04-1.79-.14-2.67-.09-8.16.43-8.16.44-10.76 8.18-.78 2.33-1.6 4.65-2.32 7-1.35 4.42-1.62 8.82.98 12.91 1.25 1.95 1.36 3.58.45 5.86-1.13 2.85-1.61 6.04-1.88 9.12-.37 4.12-.51 8.28-.31 12.41.23 4.63-.77 8.79-3 12.83-.58 1.05-.26 2.7-.07 4.04.58 4.04 1.9 8.07 1.86 12.1-.3 28.07-.82 56.15-1.43 84.21-.07 2.98 1.09 4.58 3.65 4.94 3.16.44 6.41.19 9.59.5 3.7.36 7.67.3 11.01 1.68 9.81 4.05 17.34 10.92 22.34 20.39.3.57.48 1.2.78 1.94-1.37.5-2.6.96-2.99 1.1-.08 2.83-.13 5.15-.21 7.48-.11 3.09 1.8 4.5 4.92 5.15-3.49 6.33-1.31 12.69-.92 18.94.17 2.73-.91 3.93-3.01 4.84-4.42 1.92-7.88.36-8.28-4.26-.57-6.44-1.2-12.99-.59-19.38.88-9.15-2.19-15.81-9.62-20.98-3.5-2.43-6.33-5.32-11.33-3.56-2.33.82-5.3-.19-7.98-.34-4.59-.26-8.3 3-9.08 8.13z"/><path d="m170.3 229.13c-.06 3.92.99 8.16-3.06 11.02-.32.23-.01 1.38.03 2.1.17 3.37.81 6.81.39 10.11-.48 3.84-.84 8.44-3.12 11.15-4.26 5.08-9.86 9.05-14.9 13.47-9.08.91-18.16 2.54-27.23 2.42-4.49-.06-9.81-2.34-13.24-5.35-10.13-8.87-9.83-9.21-11.32-23.74-.3-2.89-.87-5.76-.96-8.66-.11-3.31-.17-6.68.37-9.92.84-5.06 2.18-10.03 3.38-15.03.45-1.87.77-2.79 3.34-1.33 7.41 4.22 13.64 11.22 23.25 10.67.86-.05 1.75.1 2.58-.08 4.76-1.02 9.45-2.59 14.26-3.07 6.71-.67 12.33-3.22 16.8-8.06 2.23-2.41 4.37-2.11 5.83-.07 1.67 2.33 2.74 5.22 3.5 8.02.53 1.99.1 4.23.1 6.35zm-58.56 27.95c3.33 2.28 6.27 5.01 9.74 6.52 6.05 2.64 12.58 3.05 19.1 1.77 5.72-1.13 10.19-3.68 11.37-10.13.74-4.05 2.51-7.97 2.76-12.02.32-5.2-1.64-6.81-5.51-7.67-4.62-1.03-8.98-1.2-13.54-.19-4.36.96-8.77 1.73-13.18 2.5-8.81 1.54-8.78 1.54-12.01 9.77-1.12 2.84-.6 4.77 2.45 5.74.25.08.45.33.74.55-.54.89-1 1.64-1.92 3.16z"/></g></svg>