<svg enable-background="new 0 0 400 400" viewBox="0 0 400 400" xmlns="http://www.w3.org/2000/svg"><path d="m231.03 25.88c3.34 7.18 2.56 14.32 2.26 21.42-.28 6.7-.39 13.4-.72 20.1-.14 2.77-.48 5.55-1.02 8.26-.92 4.65.45 6.57 5.1 6.51 14.65-.19 29.31-.55 43.96-.58 3.96-.01 7.91.92 11.87 1.42.05.46.1.92.15 1.38-2.9.8-5.77 2.2-8.69 2.3-10.94.35-21.9.17-32.85.4-5.91.12-11.82.63-17.71 1.11-.6.05-1.52 1-1.61 1.63-1.28 9.16-2.44 18.35-3.66 27.71 5.37.24 10.5.5 15.62.69 8.05.29 13.71 4.4 17.26 11.32 3.71 7.24 4.71 15.32 4.25 23.2-.28 4.78-2.4 9.87-4.98 14.02-4.43 7.13-6.83 14.55-6.3 22.85 1.03 16.08 1.92 32.11.68 48.28-.52 6.75 1.62 13.7 2.62 20.56 3.02 20.7 5.7 41.45 9.28 62.05 1.63 9.4 4.79 18.57 7.74 27.69 2.36 7.28 4.59 14.5 4.2 22.26-.04.89-.12 1.78-.23 2.67-.02.18-.24.33-.92 1.21-1.72-4.49-3.78-8.45-4.75-12.66-3.33-14.41-8.18-28.3-12.97-42.26-2.5-7.29-2.8-15.35-3.92-23.09-2.83-19.59-5.97-39.15-8.18-58.82-1.23-10.97-.93-22.11-1.18-33.18-.15-6.59-.03-13.19-.03-20.27-7.17.87-13.68 1.64-20.19 2.46-8.43 1.06-16.87 2.08-25.29 3.28-2.09.3-2.89-.37-3.08-2.84 6.89-1.36 13.71-3.03 20.63-4 10.78-1.51 19.29-7.41 27.7-13.55 3.12-2.28 2.72-7.44-.53-10.3-4.44-3.91-9.54-6.1-15.6-5.84-8.99.38-17.85 1.17-25.81 6-1.41.86-3.06 1.52-4.68 1.76-1.3.19-2.72-.39-4.08-.63-.07-.4-.14-.81-.2-1.21 2.59-1.84 5.07-3.89 7.81-5.49 8.7-5.08 18.04-8.73 28.13-9.06 7.81-.25 15.18 1.97 20.45 8.53.97 1.21 2.03 2.33 3.42 3.91 3.06-8.66 3.45-17.05-.94-24.4-2.93-4.91-8.9-7.35-14.91-6.93-10.68.74-21.43 1.4-31.33 6.28-2.08 1.03-4.31 1.95-6.58 2.33-1.04.17-2.31-1.08-3.48-1.69.71-.83 1.25-2.05 2.15-2.43 4.95-2.04 9.95-3.98 15-5.76 9.97-3.51 10-3.45 9.99-13.83-.02-13.54-.79-27.14.1-40.62.92-14.02 3.42-27.93 5.25-41.89.08-.66.43-1.25.8-2.26z" fill="#010100"/><path d="m100.37 330.81c1.36-2.11 2.57-4.34 4.12-6.3 5.5-6.92 11.29-13.61 16.65-20.64 9.89-12.97 19.65-26.03 29.25-39.21 4.2-5.77 8.41-11.65 11.65-17.98 6.64-12.98 11.77-26.55 13.04-41.29.85-9.98-3.04-18.08-9.64-25.16-2.38-2.56-6.23-2.35-8.42.4-10.86 13.66-21.7 27.33-32.54 41-2.15 2.72-4.24 5.52-9.01 5.56.73-1.34 1.05-2.47 1.78-3.17 10.85-10.48 18.57-23.1 25.58-36.31 3.39-6.39 7.72-12.3 11.84-18.29 1.51-2.19 1.94-4.26 1.62-6.85-.42-3.41-.25-6.9-.6-10.32-.09-.93-.97-2.33-1.77-2.57-10.45-3.17-21.07-4.99-32.02-3.03-3.63.65-7.27 1.74-10.39-1.93 4.55-3.1 9.65-3.69 14.73-4.04 8.69-.6 17.41-.87 26.1-1.48 1.28-.09 3.18-1.06 3.58-2.09 1.07-2.75 2.42-5.9 1.99-8.63-2.25-14.25-.13-28.36.56-42.52.46-9.58.47-19.18.56-28.78.09-9.9.02-19.8.02-29.94 2.7 2.54 3.07 5.91 3.2 9.12.4 9.61.55 19.22.72 28.84.18 10.38.14 20.69 1.66 31.08 1.07 7.34-.93 15.11-1.28 22.7-.26 5.76-.1 11.55-.09 17.33.01 3.03 2.04 4.63 4.62 4.8 3.85.26 7.76.03 11.62-.29 3.66-.3 7.29-1.24 10.95-1.39 1.8-.07 3.65 1.01 6.11 1.77-4.53 4.6-9.32 4.88-14.1 5.39-6.63.7-13.24 1.58-19.65 2.36.25 4.88.17 9.12.82 13.24.32 2.03 1.81 3.99 3.09 5.74 3.75 5.14 7.92 9.99 11.47 15.25 7.69 11.42 9.48 23.56 2.94 36.12-8.31 15.95-16.6 31.92-25.48 47.56-3.39 5.96-8.37 11.02-12.65 16.48-4.96 6.34-9.8 12.77-14.93 18.96-6.99 8.43-14.16 16.71-21.38 24.94-1.5 1.71-3.59 2.91-5.41 4.34-.32-.26-.61-.52-.91-.77z" fill="#010100"/><g fill="#fcfbfa"><path d="m377.9 391.2c-.2.3-.4.5-.6.8-.7-.6-1.4-1-2.2-1.5.2-.3.4-.5.5-.8.6.4 1.4.8 2.3 1.5zm-1.8 6.1c-.2-.2-.5-.4-.9-.6.4-.6.8-1.2 1.2-1.9s.7-1.3.9-1.9c.3.3.5.5.8.7-.7 1.3-1.4 2.6-2 3.7zm2.2-9c-.3.3-.5.5-.6.8-.6-.6-1.3-1.1-2-1.5.3-.3.5-.5.6-.7.6.5 1.3.9 2 1.4zm.3.2v-.9h2 4.5c-.3 1.3-.6 2.5-1 3.6s-.9 2.1-1.4 3c.4.5 1 1 1.6 1.4s1.2.8 1.9 1.1c-.3.2-.5.4-.8.8-.4-.3-1-.7-1.6-1.2s-1.2-1.1-1.6-1.6c-.5.6-1.1 1.1-1.7 1.6s-1.4.9-2.1 1.4c-.1-.3-.3-.5-.7-.8.6-.2 1.2-.5 1.9-1s1.4-1.1 2-1.8c-.5-.8-.9-1.6-1.2-2.5s-.6-2-.8-3.2c-.4.1-.7.1-1 .1zm2.5 2.7c.3 1 .7 1.7 1 2.2.3-.5.6-1.1 1-2s.6-1.9.9-3h-3.2-.4c.1.9.3 1.8.7 2.8z"/><path d="m396.5 388.5v1.5 3.6h1.5v.9c-.4 0-1 0-1.7 0h-7.9c-.5 0-.9 0-1.2 0v-.9h1.3v-3.5c0-.7 0-1.2 0-1.6h2.4c0-.8 0-1.4 0-1.7h1c0 .3-.1.8-.1 1.7h1.5c0-.8 0-1.4 0-1.7h1c0 .3-.1.9-.1 1.7zm-8.2 9.2c-.2-.3-.5-.5-.8-.8.8-.3 1.4-.6 1.9-.9s1-.7 1.4-1.1c.3.3.6.5.9.8-1.6 1-2.8 1.6-3.4 2zm2.6-6.8v-1.6h-1.5v1.6zm0 2.7v-1.9h-1.5v1.9zm2.4-2.7v-1.6h-1.5v1.6zm0 2.7v-1.9h-1.5v1.9zm.2 2 .7-.8c.4.2.9.5 1.6.8s1.3.7 1.8 1c-.3.3-.5.5-.8.8-.4-.3-1.5-1-3.3-1.8zm2-4.7v-1.6h-1.4v1.6zm0 2.7v-1.9h-1.4v1.9z"/></g></svg>