<svg enable-background="new 0 0 400 400" viewBox="0 0 400 400" xmlns="http://www.w3.org/2000/svg"><path d="m5.17 384 .55-.58c.85.61 1.65 1.24 2.4 1.87l-.59.64c-.83-.73-1.62-1.38-2.36-1.93m1.22 9.53-.82-.34c.71-1.76 1.37-3.64 1.98-5.63.24.13.5.25.76.36-.6 1.67-1.24 3.54-1.92 5.61m-.5-13.5.57-.54c.56.44 1.31 1.06 2.26 1.87l-.64.64c-.68-.66-1.41-1.32-2.19-1.97m3.25.46h2.24v-1.36h.77v1.36h4.57v-1.36h.76v1.36h2.28v.69h-2.28v1.84h-2.64v1.26h4.18v2.64h-4.21c0 .45-.02.86-.05 1.21h4.32v.69h-4.38c-.04.34-.1.75-.19 1.22h5.15v.69h-4.82c.87 1.19 2.51 1.92 4.93 2.19-.17.31-.3.57-.37.76-2.77-.49-4.52-1.41-5.26-2.76-.56 1.26-2.3 2.23-5.24 2.9-.12-.24-.26-.48-.43-.72 2.73-.55 4.38-1.34 4.96-2.38h-4.38v-.69h4.65c.1-.38.17-.79.21-1.22h-4.32v-.69h4.4c.03-.34.05-.75.05-1.21h-4.2v-2.64h4.23v-1.26h-2.69v-1.84h-2.24zm1.46 4.46v1.29h3.45c.01-.4.02-.57.01-.53v-.32-.45h-3.46zm1.55-2.59h4.57v-1.19h-4.57zm6.11 2.59h-3.42v.77c-.01.19-.01.37-.02.53h3.44z" fill="#fafafc"/><path d="m32.63 379.16h.82v1.98h3.54v7.89h1.46v.78h-14.37v-.78h1.46v-7.89h3.54v-1.98h.82v1.98h2.73zm-3.49 11.48.5.73c-1.61.82-3.28 1.63-5 2.41-.13-.27-.28-.55-.44-.82 1.75-.72 3.4-1.49 4.94-2.32m-2.78-5.55h2.73v-3.18h-2.73zm0 3.95h2.73v-3.2h-2.73zm3.54-3.95h2.73v-3.18h-2.73zm0 3.95h2.73v-3.2h-2.73zm7.89 4.68c-1.84-.92-3.51-1.7-5.02-2.32l.45-.73c1.89.8 3.57 1.55 5.04 2.23zm-1.62-11.81h-2.73v3.18h2.73zm-2.73 7.13h2.73v-3.2h-2.73z" fill="#fafafc"/><path d="m23.75 241.48c5.16.13 9.37.6 11.74 6.01 1.81 4.14 4.79 7.81 7.54 11.47 1.8 2.39 3.9 4.66 6.24 6.5 4.75 3.75 6.7 3.57 11.4-.2 12.48-10.03 24.95-20.05 37.43-30.08.86-.69 1.67-1.44 2.84-2.45-6.93-3.09-13.5-6.15-20.18-8.93-3.81-1.59-6.95-3.77-9.49-7.09-6.73-8.79-13.67-17.41-20.47-26.14-.95-1.22-1.53-2.73-2.36-4.06-3.99-6.37-5.68-13.01-2.68-20.31.91-2.22.38-4.21-.95-6.27-4.1-6.38-7.99-12.9-12.25-19.84 8.15-1 15.84-1.96 23.54-2.88 15.55-1.86 31.1-3.71 46.65-5.52 1.76-.21 2.78-.82 3.17-2.74.85-4.16 1.85-8.3 3.02-12.38.54-1.89.04-2.79-1.63-3.7-6.78-3.69-13.51-7.45-20.18-11.33-2-1.16-3.92-2.6-5.52-4.25-9.04-9.32-17.82-18.9-27.05-28.03-2.93-2.9-6.72-5.2-10.51-6.92-5.81-2.63-6.77-3.75-5.71-10.8 5.67-.56 11.42-1.24 17.2-1.58 1.01-.06 2.25 1.18 3.14 2.07 7.92 7.9 15.62 16.04 23.72 23.75 6.02 5.73 13.32 9.39 21.56 10.94 4.15.78 4.49.48 5.31-3.66 1.7-8.61.18-16.87-2.4-25.1-1.56-4.98-3.02-10.08-3.61-15.24-.33-2.88.67-6.23 1.99-8.92 1.95-3.97 5.33-6.21 10.17-5.19 3.81.8 7.76 1.08 11.47 2.2 3.78 1.14 4.7 3.01 3.98 6.94-.99 5.38-2.12 10.74-3.42 16.06-2.36 9.66-1.22 19.14 1.42 28.49 1.35 4.77 2.64 4.96 7.33 3.6 6.19-1.8 11.09-5.03 15.37-9.99 8.41-9.74 17.39-18.98 26.13-28.44.53-.57.95-1.25 1.51-2 5.15 5.57 6.54 11.73 4.85 18.41-1.44 5.73-3.46 11.31-5.36 16.92-.41 1.21-1.27 2.35-2.15 3.31-2.21 2.37-4.78 4.44-6.82 6.95-5.76 7.06-13.46 10.85-21.86 13.6-2.55.83-5.08 1.71-7.62 2.59-10.04 3.5-13.25 8.67-12 19.84 7.48.27 15.04.54 22.6.81 4.8.18 9.61.32 14.41.6 1.18.07 2.38.54 3.48 1.02 6.75 2.97 13.39 6.22 20.25 8.91 4.05 1.59 5.59 4.54 6.19 8.34 1.13 7.15-.17 14.11-2.48 20.8-4.16 12.04-8.59 23.98-13.17 35.87-.82 2.14-2.58 4.19-4.41 5.64-11.13 8.81-22.42 17.44-33.94 26.35.88.67 1.5 1.21 2.19 1.65 2.17 1.37 4.29 2.87 6.58 4.03 13.01 6.63 23.48 16.17 32.35 27.65 3.91 5.07 8.8 8.84 15.15 10.55 2.94.79 5.09.43 7.45-1.92 10.78-10.73 21.62-21.43 32.84-31.7 5.65-5.17 12.16-9.41 18.52-14.25-1.13-.77-2.02-1.41-2.94-1.99-5.78-3.62-11.31-7.76-17.42-10.72-9.28-4.51-14.63-12.28-18.97-20.94-8.01-16-12.42-33-13.16-50.93-.08-1.92.42-3.04 2.12-4.01 5.82-3.34 11.49-6.93 17.35-10.21 1.12-.63 2.81-.24 4.25-.29.21-.01.43.12.62.24 6.1 3.59 12.51 4.83 19.58 3.39 3-.61 6.23 0 9.35-.06 3.24-.06 6.52.05 9.7-.45 7.53-1.17 9.24-3.62 8.36-11.17-.03-.22-.07-.44-.09-.67-.82-7-3.36-12.25-10.66-15.3-11.32-4.74-22.19-10.57-33.2-16.04-13.14-6.53-20.02-17.34-21.51-31.99 3.73-1.46 7.16-.59 10.16 1.46 4.42 3.02 8.92 6.05 12.79 9.71 9.32 8.81 20.2 14.59 32.55 18.38 6.39-10.52 7.74-21.52 4.24-33.2-.93-3.09-1.97-6.21-2.37-9.39-.51-3.96 1.56-6.6 5.51-6.29 5.28.42 10.5 1.78 15.69 2.97.76.18 1.46 1.56 1.8 2.52 3.24 8.94 3.36 17.94.35 26.97-.49 1.48-1.04 2.96-1.43 4.47-1.18 4.54.73 7.17 5.42 6.71 6.12-.59 11.98-1.94 16.99-6.17 6.23-5.27 12.78-10.18 19.38-14.97 2.37-1.72 5.31-2.64 8.36-4.1 1.47 4.01 2.81 7.41 3.89 10.89.22.71-.25 1.96-.83 2.55-6.75 6.87-13.55 13.68-20.41 20.44-.93.91-2.2 1.5-3.38 2.11-7.44 3.86-14.86 7.75-22.35 11.52-11.59 5.82-11.45 17.17-9.56 26.01.18.87 1.58 1.74 2.59 2.12 11.29 4.2 23.04 5.29 34.98 4.99 3.02-.08 6.04-.2 9.06-.19 10.49.03 17.67 5.87 18.58 16.33.67 7.64-.2 15.39-.11 23.09.07 5.59-2 9.88-5.84 13.95-6.38 6.75-12.26 13.96-18.26 21.05-4.52 5.34-10.06 9.24-16.6 11.57-6.45 2.29-11.2 6.26-14.05 12.73 9.83 6.12 19.46 12.44 29.43 18.19 5.23 3.01 7.7 7.15 8.19 12.87.29 3.34 1.36 6.06 5.14 6.92 1.76.4 2.84.18 3.88-1.48 3.45-5.49 6.75-11.14 10.78-16.18 2.26-2.82 5.77-4.7 8.9-6.71.6-.39 2.6.27 3.09 1.01 4.53 6.85 6.17 14.55 5.91 22.66-.03.95-.85 2.03-1.57 2.79-20.42 21.83-40.87 43.63-61.33 65.42-.76.81-1.6 1.58-2.54 2.17-26.73 16.89-55.71 26.58-87.47 27.71-36.8 1.31-72.2-5.23-106.01-19.49-12.1-5.1-23.53-11.95-34.83-18.74-4.78-2.87-8.64-7.42-12.56-11.56-12.41-13.13-23.78-27.09-32.79-42.82-5.75-10.03-9.37-20.78-9.66-32.46-.04-2.44.26-4.87.4-7.35zm48.89 55.75c-.5 8.88 3.33 15.94 10.54 19.99 4.38 2.46 9.03 4.56 13.09 7.48 10.84 7.8 23.19 11.96 35.82 15.41 17.53 4.79 35.48 7.12 53.59 8.31 20.05 1.32 40.01 1.15 59.78-2.98 10.72-2.24 21.05-5.59 30.94-11.17-6.9-4.62-14.12-5.01-21.78-4.03-6.51.83-13.16 1.59-19.68 1.21-21.14-1.23-42.23-1.23-63.35.34-12.86.96-25.72.78-38.35-2.42-7.25-1.83-14.26-4.27-20.69-8.06 2.04-7.07 2.04-7.01 8.65-7.08 19.24-.19 38.48-.45 57.72-.65 32.22-.35 64.44-.69 96.65-1 5.97-.06 9.48 4.45 8.74 10.37-.4 3.17.07 6.44.15 9.97 16.86-4.62 25.6-17.65 36.47-28.9-2.41-.9-4.22-1.93-6.15-2.24-7.49-1.2-15-2.83-22.54-3.08-14.63-.48-29.28-.07-43.92-.16-27.86-.17-55.72-.42-83.57-.66-24.16-.21-48.33-.46-72.49-.66-6.46-.03-12.94.01-19.62.01zm100.29-127.57c-.86-4.58-1.35-8.9-2.54-13.02-1.41-4.91-4.83-8.05-9.83-9.66-7.91-2.54-16.09-3.37-24.16-2.42-3.06.36-7.05 3.44-8.3 6.3-2.81 6.39-2.77 13.36 1.33 19.56.68 1.03 2.44 1.98 3.65 1.92 9.15-.42 18.3-1.08 27.44-1.69 3.88-.27 7.75-.62 12.41-.99zm98.48-6.92c-.15-7.63-2.19-9.37-9.71-9.51-7.36-.13-14.71-.83-22.05-1.44-2.98-.25-9.45 3.04-10.12 5.95-1.18 5.1-1.28 10.18 1.7 14.92 1.44 2.29 3.2 3.44 5.97 3.54 3.23.12 6.46.61 9.66 1.1 7.06 1.08 14.07 1.62 20.59-2.1 1-.57 1.98-1.81 2.25-2.91.77-3.13 1.16-6.36 1.71-9.55zm38.44 13.1c0-.02 0-.04 0-.06 3.57-.21 7.14-.41 10.7-.63 3.57-.21 7.15-.32 10.69-.73.94-.11 2.34-.95 2.56-1.73 2.59-9.08-2.27-15.72-11.67-16.36-7.24-.49-14.53-.74-21.67-1.89-5.41-.87-9.04 2.47-13.43 4.05-.49.18-.84 1.02-1.05 1.63-1.67 4.82-1.8 9.58.41 14.35.87 1.88 1.91 2.68 4.06 2.52 6.46-.49 12.93-.78 19.4-1.15zm-245.39 104.64c2.67 1.98 4.74 4.76 7.07 4.99 6.19.62 12.54.59 18.74-.04 5.47-.56 10.87-2.13 16.22-3.54 2-.53 3.15-2.02 2.88-4.58-.51-4.89-.25-9.87-.99-14.71-.43-2.82-1.89-5.63-3.49-8.05-.91-1.37-2.88-2.55-4.96-.97-11.48 8.74-22.97 17.43-35.47 26.9zm42.05-107.87c.21-1.51.48-2.72.53-3.93.11-3.01.25-6.03.15-9.04-.17-5.28-8.34-11.91-13.54-10.87-7.43 1.49-14.83 3.18-22.21 4.92-.91.22-2.02 1.06-2.39 1.9-1.24 2.86-2.36 5.8-3.2 8.8-1.03 3.71 3.37 9.99 6.88 9.85 11.14-.48 22.27-1.07 33.78-1.63zm61.34 108.86c-9.11-15.18-22.75-23.07-38.32-28.73-5.22 9.16-5.77 18.6-3.31 28.35.19.75 1.68 1.63 2.59 1.67 2.78.11 5.57-.21 8.35-.3 10.02-.34 20.03-.65 30.69-.99zm100.16-28.2c-8.04 3.07-15.68 5.89-23.23 8.93-3.3 1.33-6.52 2.93-9.56 4.78-6.2 3.76-6.09 3.85-3.74 10.73.58 1.71 1.34 2.49 3.28 2.56 5.7.21 11.38.71 17.07 1.02 5.47.3 10.72-.63 15.5-3.39.81-.47 1.81-1.6 1.78-2.39-.24-7.37-.7-14.72-1.1-22.24zm19.93-33.48c13.59-3.85 25.16-10.34 35.18-19.55 1.26-1.15 3.05-3.68 2.65-4.3-1.09-1.69-3.12-2.91-5-3.88-1.09-.57-2.62-.41-3.94-.41-7.91-.03-15.82-.01-23.73-.01-3.16 0-6.59 2.44-6.48 4.74.39 7.68.86 15.37 1.32 23.41zm33.88 58.52c-7.17-15.4-20.25-21.51-35.3-25.4-.48 9.11-.94 17.89-1.42 27.08 12.45-.56 24.44-1.11 36.72-1.68zm-189.56-62.69c8.81-4.84 17.42-9.57 26.02-14.31 3.25-1.79 3.69-4.39.7-6.67-1.87-1.43-4.3-2.37-6.63-2.92-3.25-.76-6.64-1.36-9.95-1.27-3.58.1-7.94-2.85-10.57.71-2.15 2.9-2.91 6.95-3.88 10.6-1.43 5.36.67 9.78 4.31 13.86zm138.9-6.52c-.55-12.04-3.77-16.59-13.54-18.56-2.39-.48-4.87-.7-7.31-.74-.87-.02-2.32.66-2.54 1.33-1.26 3.91-2 8.25.86 11.51 4.07 4.65 8.55 9.07 13.43 12.85 3.83 2.97 5.65 2.21 8.04-1.94.72-1.27.72-2.96 1.06-4.45zm-178.58-19.28c-1.63 5.48-.34 9.69 3.31 13.96 3.84 4.5 7.72 2.06 11.71 1.73 1.6-9.61-3.17-14.61-15.02-15.69z" fill="#010101"/></svg>