<svg enable-background="new 0 0 400 400" viewBox="0 0 400 400" xmlns="http://www.w3.org/2000/svg"><g fill="#010102"><path d="m109.85 281.95c8.08 3.23 16.06 4.54 24.33 4.46 10.28-.1 15.55 5.54 15.19 16.66-6.44 1.06-12.98 2.66-19.59 3.13-19.28 1.39-38.59 2.43-57.9 3.39-4.89.24-9.83-.28-14.74-.58-3.83-.23-7.39-3.67-7.61-7.14-.23-3.79 2.6-7.87 6.12-8.79 11.24-2.95 22.48-5.89 33.71-8.84.95-.25 1.88-.58 2.97-.91-.73-9.39-1.45-18.62-2.18-27.86-.25-3.12-.31-6.28-.88-9.34-.23-1.24-1.38-2.76-2.52-3.31-3.52-1.69-7.12-1.13-10.12 1.25-11.45 9.07-23.54 5.97-35.44-.33-1.75-.92-3.25-2.82-4.21-4.62-2.32-4.37-1.13-6.95 3.49-8.48 15.18-5.01 30.34-10.06 45.55-14.96 2.41-.78 3.25-1.85 3.17-4.47-.57-17.22-.89-34.44-1.48-51.66-.05-1.35-1.12-3.12-2.26-3.9-3.9-2.69-8.42-2.65-12.93-2.18-1.33.14-2.65.48-3.98.55-6.66.32-11.89 2.79-16.32 8.2-5.14 6.29-11.02 12.25-19.79 13.42-2.18.29-5.32.78-6.5-.37-2.49-2.44-3.48-6.12-1.81-9.61 1.34-2.8 2.99-5.53 4.91-7.97 24.4-30.91 48.89-61.75 73.29-92.66 1.25-1.58 2.48-1.95 4.3-1.55 3.93.85 7.54 2.51 8.64 6.56 4.73 17.53 17.05 30.13 27.88 43.74 4.66 5.85 9.3 11.75 13.36 18.01 3.76 5.8 5.51 12.4 5.18 19.46-.11 2.22-.78 3.17-3.17 3.09-4.76-.15-9.25.05-13.69-2.95-5.2-3.52-11.63-3.76-17.84-3.44-4.79.24-9.56.91-14.35 1.29-2.12.17-2.92 1.22-3.54 3.24-4.22 13.83-4.06 28.03-3.87 42.25.07 5.37-.07 10.75.15 16.11.05 1.12 1.04 2.72 2.03 3.18 3.12 1.46 6.42 2.55 9.71 3.64 3.48 1.15 7.15 5.69 7.02 9.31-.03.84-1.04 1.76-1.78 2.45-3.99 3.74-8.25 7.21-11.98 11.18-3.46 3.68-4.15 7.98-2.14 13.02 2.92 7.32 2.58 15.13 2.07 22.87-.14 1.77-.3 3.54-.45 5.46zm-29.14-151.07c17.03-1.05 33.78-2.07 51.27-3.15-6.59-9.32-11.83-18.72-19.97-25.88-1.89-1.66-4.29-2.77-6.53-4-1.89-1.03-3.36-.64-4.83 1.21-4.71 5.95-9.38 11.99-14.58 17.51-3.79 4.06-5.23 8.6-5.36 14.31z"/><path d="m256.88 229.6c1.21 4.67 2.53 9.17 3.48 13.75.47 2.23.63 4.66.27 6.9-1.48 9.27-3.22 18.5-4.84 27.75-.13.76-.09 1.54-.15 2.63 3.5.41 6.9.94 10.32 1.12.77.04 1.88-.97 2.36-1.78 2.11-3.53 4.05-7.16 6.22-11.07 7.36 8.11 11.18 17.29 11.08 27.85-.09 9.32-1.95 18.37-4.79 27.3-1.61 5.05-4.8 8.18-9.07 10.59-7.6 4.3-15.73 5.66-24.28 3.81-1.4-.3-2.91-1.23-3.85-2.32-9.2-10.65-13.34-22.95-12.43-37.11.75-11.68 3.25-22.92 5.97-34.26 2.51-10.47 3.32-21.35 5.01-32.98-3.57 1.14-6.54 1.69-9.13 3.01-4.68 2.38-9.2 5.1-13.61 7.94-1.22.78-2.34 2.4-2.65 3.82-1.69 7.75-2.96 15.6-4.71 23.33-.73 3.19-1.93 6.41-3.58 9.22-6.29 10.7-12.87 21.23-19.28 31.86-.91 1.51-1.72 2.58-3.64 1.65-1.96-.95-5.06.27-5.4-3.59-.85-9.71.86-19.11 4.45-27.92 7.26-17.78 15.21-35.28 22.97-52.85.43-.99 1.53-2 2.54-2.36 17.64-6.42 35.25-13.09 54.07-15.16 4.32-.48 8.81.59 13.22.99 12.24 1.11 24.5 2.09 36.73 3.42 7.99.87 15.47 3.4 21.99 8.36 2.23 1.7 3.43 3.38 2.43 6.49-1.3 4.02-1.57 8.4-3 12.36-3.85 10.65-.38 20.56 3.02 30.29 2.76 7.88 7.05 15.22 9.95 23.06 1.59 4.29 1.81 9.11 2.38 13.72.08.69-1.19 2.02-2.05 2.25-2.57.69-5.25.98-8.16 1.48-4.63-9.56-9.24-19.09-13.85-28.62-1.51-3.12-2.83-6.35-4.54-9.35-6.81-11.9-8.2-25.42-11.61-38.33-.53-2-1.11-3.21-3.58-3.4-16.39-1.27-32.77-2.73-49.15-4.12-.19-.02-.4.09-1.11.27zm-4.26 69.99c.39 3.41.85 6.14.95 8.87.09 2.27.91 3.28 3.22 3 .88-.1 1.79.08 2.66-.04 1.58-.21 4.46-.44 4.49-.84.19-2.45.01-5.03-.65-7.4-.26-.95-1.98-1.76-3.18-2.12-2.2-.65-4.53-.92-7.49-1.47z"/><path d="m299.71 97.12c11.07.99 18.39 6.76 22.55 16.7 3.41 8.14 6.64 16.35 10.08 24.48.76 1.8 1.87 3.55 3.16 5.03 3.67 4.22 7.67 8.16 11.26 12.45 5.28 6.3 11.68 11.06 19.09 14.46 4.32 1.98 5.99 5.29 6.07 9.88.05 2.79-.98 4.26-3.63 5.11-6.1 1.96-11.65.81-17.02-2.37-13.08-7.76-24.35-17.29-32.12-30.7-7.06-12.18-14.86-23.96-18.85-37.66-1.98-6.8-2.17-12.14-.59-17.38z"/><path d="m188.81 175.57c-3.54-1.26-8.51-2.88-13.33-4.83-1.87-.76-2.59-5.97-1.15-7.38 16.55-16.16 31.12-34.37 49.91-48.19 3.51-2.58 7.4-4.62 10.91-7.2 4.38-3.22 8.85-2.28 13.39-.82 2.74.88 4.15 2.93 3.17 5.71-.95 2.67-1.97 5.61-3.84 7.62-15.94 17.1-32.12 33.98-48.14 51.01-2.62 2.76-5.77 3.62-10.92 4.08z"/><path d="m311.07 189.62c-4.09.31-8.17.66-12.26.92-12.7.81-25.39 2-38.1 2.18-5.79.08-11.73-1.41-17.4-2.95-8.97-2.44-10.32-4.07-15.71-14.93 9.58-1.96 18.37-6.59 28.6-5.65 13.55 1.24 27.35.61 40.7 2.85 16.09 2.69 12.73 2.18 14.17 17.58z"/><path d="m24.53 207.11c-.86-2.57-1.74-4.86-2.36-7.22-.19-.7.05-1.87.55-2.34 9.85-9.26 20.15-18 33.92-20.52 3.55-.65 7.69.58 11.25 1.81 3.17 1.1 4.16 4.25 3.25 7.53-1.04 3.75-2.95 6.84-6.33 9.11-9.29 6.25-19.93 8.24-30.61 10.16-3.16.56-6.35.97-9.67 1.47z"/><path d="m117.48 172.18c3.83-4.96 8.77-5.29 13.92-4.42 7.47 1.27 15.08 2.17 22.32 4.29 8.39 2.45 11.84 9.05 10.32 17.68-8.17 1.28-16.43 2.62-24.72 3.82-.82.12-2.01-.35-2.59-.97-6.5-6.78-12.9-13.65-19.25-20.4z"/><path d="m30.5 268.76c12.52-3.8 24.54-7.53 36.62-11.07 4.82-1.41 12.18 4.98 11.74 10.08-.07.77-.96 1.65-1.7 2.15-6.63 4.53-14.01 6.83-22.02 6.8-6.58-.02-13.16-.28-19.73-.59-.85-.04-1.98-.82-2.42-1.58-.97-1.71-1.59-3.62-2.49-5.79z"/></g><path d="m6.4 11.7c-1-.8-1.9-1.6-2.9-2.3l.6-.7c.9.7 1.9 1.4 2.9 2.2zm-2.1 8.3c.7-2.1 1.4-4.2 2-6.4.2.1.6.3 1 .4-.7 2.3-1.3 4.4-1.9 6.4zm3-12.8c-1.1-.9-2.1-1.7-2.9-2.4l.6-.7c1 .8 2 1.5 3 2.4zm1.4-1.3v-.9h10.2v.9c-.9 4.2-2.3 7.3-4.1 9.4 1.3 1.4 3.2 2.7 5.7 4-.2.2-.4.5-.7.9-2.5-1.4-4.4-2.7-5.7-4.2-1.4 1.5-3.5 3-6.1 4.4 0 0 0 0-.1-.1-.3-.4-.5-.7-.7-.8 2.7-1.3 4.7-2.8 6.2-4.2-1.8-2.2-3-5.3-3.7-9.4zm9.2 0h-7.1c.6 3.8 1.7 6.7 3.4 8.7 1.7-2 2.9-4.8 3.7-8.7z" fill="#fafbfa"/><path d="m31.6 3.6h.9v2.3h4.1v9.1h1.7v.9h-16.6v-.9h1.7v-9.1h4.1v-2.3h.9v2.3h3.1v-2.3zm-4 13.3.6.8c-1.9.9-3.8 1.9-5.8 2.8-.2-.3-.3-.6-.5-.9 2-.9 3.9-1.8 5.7-2.7zm-3.2-10.1v3.7h3.1v-3.7zm0 4.5v3.7h3.1v-3.7zm4.1-4.5v3.7h3.1v-3.7zm0 4.5v3.7h3.1v-3.7zm9.1 9.1c-2.1-1.1-4.1-2-5.8-2.7l.5-.8c2.2.9 4.1 1.8 5.8 2.6zm-1.9-13.6h-3.1v3.7h3.1zm-3.2 4.5v3.7h3.1v-3.7z" fill="#fafbfa"/></svg>