<svg enable-background="new 0 0 400 400" viewBox="0 0 400 400" xmlns="http://www.w3.org/2000/svg"><path d="m109.66 148.15c5.23 9.16 5.18 18.72 4.85 28.41-.17 4.99.34 10.02.63 15.02.14 2.33 1.49 2.95 3.82 3.07 13.88.69 27.38-2.33 41.01-4.05 7.54-.95 15.05-2.2 22.6-3.1 2.74-.33 4.82-1.3 5.48-3.99.89-3.62 1.78-7.3 2.01-11 .21-3.38-1.63-5.94-4.53-8.04-5.06-3.68-9.67-7.99-14.72-11.69-5.85-4.29-8.04-10.16-8.54-17.05-.71-9.82 2.08-18.76 6.48-27.37 3.1-6.07 5.98-12.25 9.1-18.3 3.1-6 2.36-11.11-3.06-15.37-6.06-4.76-12-9.66-18.17-14.27-5.87-4.39-10.88-9.31-12.76-16.69-.13-.51-.17-1.03-.33-1.99 9.35 3.12 18.32 6.11 27.29 9.1 8.26 2.76 16.54 5.48 24.76 8.35 1.87.65 3.04.21 4.44-1.02 11.7-10.26 23.46-20.44 35.21-30.64.81-.7 1.67-1.36 2.99-2.42-.5 5.26-.86 9.91-1.43 14.54-.11.88-.95 1.73-1.6 2.46-5.4 6.13-10.78 12.29-16.32 18.29-.92.99-2.57 1.52-3.97 1.79-1.59.3-3.27.07-5.37.07.87 5.41 1.57 10.36 2.51 15.26.18.96 1.19 1.83 1.96 2.6 6.75 6.82 12.17 14.61 16.57 23.09 3.17 6.11 4.54 12.68 3.5 19.5-.38 2.48-2.05 4.73-2.81 7.19-.52 1.69-1.09 3.75-.57 5.29 1.63 4.82.2 8.43-3.26 11.77-3.7 3.57-7.24 7.31-10.78 11.06-4.52 4.78-5.1 10.55-3.6 16.6.28 1.14 1.67 2.6 2.77 2.82 5.01 1 10.11 2.34 15.14 2.23 16.49-.36 32.69-2.99 48.6-7.48 4.12-1.16 6.28-3.53 7.7-7.42 3.73-10.18 3.85-20.53 2.4-31.1-1.45-10.56-.68-20.98 2.85-31.12.35-1.01.79-1.99 1.41-3.56 4.96 7.64 8.31 15.32 10.09 23.68 2 9.33 1.87 18.84.22 28.05-2.26 12.65-2.65 25.01 1.08 37.36 1.61 5.34 1.45 10.54-1.12 15.56-1.39 2.72-1 5.09 1.06 7.32 2.41 2.61 2.97 5.71 2.92 9.24-.18 12.31-.44 24.64.02 36.94.65 17.55 1.87 35.07 2.91 52.6.51 8.49 1.22 16.96 1.76 25.45.26 4.08-3.37 6.84-7.05 5.09-2.28-1.08-4.51-2.84-6.01-4.85-3-4.02-5.61-8.36-8.13-12.71-1.15-2-2.44-2.46-4.61-2.13-16.91 2.62-33.83 5.13-50.74 7.69-4.75.72-9.53 1.34-14.25 2.25-1.05.2-2.43 1.24-2.75 2.2-1.71 5.07-3.29 10.19-4.61 15.38-1.49 5.87-7.13 10.28-13.13 9.7-.72-.07-1.59-1.01-1.96-1.76-2.4-4.92-4.82-9.84-6.93-14.89-.95-2.27-2.25-2.96-4.56-2.83-17.87.95-35.73 1.9-53.61 2.71-11.43.52-22.69 2.01-33.79 4.85-1.89.48-2.73 1.2-2.68 3.06.18 5.7.44 11.4.49 17.1.02 1.97-.1 4.1-.82 5.89-1.59 3.94-7.43 4.48-9.91 1.04-5.66-7.86-7.11-16.89-6.34-26.2 1.23-14.93 2.91-29.82 4.56-44.71 2.5-22.46 4.82-44.94 7.8-67.34 3.54-26.69 4.1-53.53 5.29-80.35.08-1.88.68-2.8 2.47-3.33 2.68-.82 5.26-1.88 8.07-2.9zm69.37 137.1c-.7.04-2.28.01-3.82.25-12.37 1.94-24.74 3.84-37.08 5.92-9.38 1.58-18.66 3.63-27.24 7.97-1.77.9-3.91 1.81-4.93 3.35-6.32 9.55-7.23 18.77 1.41 28.05.59.63 2.02 1.03 2.86.81 15.61-4.14 31.6-4.5 47.59-4.93 10.84-.29 21.31-2.2 30.97-7.56 3.06-1.7 4.1-3.73 3.63-7.25-.59-4.51-.8-9.12-.65-13.67.37-10.65-1.15-12.44-12.74-12.94zm39.11 30.96c1.18-.09 1.61-.09 2.03-.15 18.12-2.67 36.2-5.68 54.37-7.88 8.34-1.01 15.69-2.72 20.12-10.59.16-.29.52-.48.63-.77.3-.79.8-1.64.74-2.43-.43-5.79-.76-11.61-1.55-17.36-.92-6.69-5.54-10.02-12.15-9.05-9.28 1.36-18.65 2.35-27.78 4.41-10.52 2.37-20.83 5.69-31.21 8.69-2.41.7-3.89 2.31-4.18 5.01-.69 6.32-1.85 12.6-2.22 18.93-.22 3.66.75 7.39 1.2 11.19zm-115.01-64.38c3.46 4.42 3.96 9.54 3.41 14.91-.15 1.42.03 2.92.3 4.33 1.06 5.46 1.25 5.5 6.74 4.96 17.69-1.74 35.37-3.46 53.07-5.1 6.06-.56 12.19-2.01 18.14.84.53.25 1.6.07 2.06-.32 1.98-1.74 3.83-3.63 5.83-5.57-1-.9-1.68-1.66-2.5-2.21-1.66-1.13-3.33-2.28-5.12-3.18-18.24-9.15-37.39-15.87-57.09-21.07-1.77-.47-3.73-.43-5.59-.33-8.76.47-13.66 6.85-19.25 12.74zm89.07-9.25c.13-.35.36-.66.34-.96-.82-10.82-1.66-21.64-2.53-32.46-.05-.61-.34-1.61-.73-1.73-4.12-1.27-8.41-3.69-12.42-3.33-11.11 1.01-22.15 2.98-33.15 4.98-6.57 1.2-12.93 3.33-18.8 7.93 1.94 2.35 3.3 5.51 5.61 6.55 11.81 5.29 23.85 10.1 35.86 14.95 8.27 3.35 16.7 5.89 25.82 4.07zm28.97 11.82c.87 1.34 1.72 2.39 2.3 3.57 1.67 3.4 4.13 4.8 8.04 4.18 8.16-1.3 16.47-1.83 24.53-3.55 10.46-2.24 20.75-5.32 31.1-8.06 2.04-.54 3.07-1.75 3.1-4.07.07-4.58.56-9.16.66-13.74.07-3.23.12-6.52-.39-9.68-.69-4.29-3.84-6.47-7.74-8.01-3.74-1.48-5.99.25-8.48 2.63-7.68 7.33-15.26 14.74-24.86 19.74-6.23 3.25-12.1 7.21-18.12 10.85-3.34 2-6.66 4.02-10.14 6.14zm-2.66-12.48c3.28-1.81 6.04-3 8.45-4.71 17.75-12.6 33.28-27.75 48.88-42.82.67-.64.9-2.2.69-3.2-.53-2.49-2.51-2.97-4.85-3.14-7.96-.56-15.48 1.44-23.07 3.4-12.83 3.32-25.7 6.44-39.26 9.82 7.46 7.58 7.34 16.79 7.54 26.01.11 4.64 1 9.26 1.62 14.64zm-24.49-146.72c-5.66 11.99-11.31 23.97-17.13 36.29 2.58 1.47 4.9 3.02 7.41 4.16 3.46 1.56 5.47 4.12 6.22 7.74.38 1.84.65 3.7 1.03 5.92 5.53-2.55 10.93-5.15 16.43-7.51 2.27-.97 3.39-2.44 4.08-4.78 5.31-17.89-5.64-34.4-18.04-41.82z" fill="#010100"/><g fill="#fcfbfa"><path d="m377.9 391.2c-.2.3-.4.5-.6.8-.7-.6-1.4-1-2.2-1.5.2-.3.4-.5.5-.8.6.4 1.4.8 2.3 1.5zm-1.8 6.1c-.2-.2-.5-.4-.9-.6.4-.6.8-1.2 1.2-1.9s.7-1.3.9-1.9c.3.3.5.5.8.7-.7 1.3-1.4 2.6-2 3.7zm2.2-9c-.3.3-.5.5-.6.8-.6-.6-1.3-1.1-2-1.5.3-.3.5-.5.6-.7.6.5 1.3.9 2 1.4zm.3.2v-.9h2 4.5c-.3 1.3-.6 2.5-1 3.6s-.9 2.1-1.4 3c.4.5 1 1 1.6 1.4s1.2.8 1.9 1.1c-.3.2-.5.4-.8.8-.4-.3-1-.7-1.6-1.2s-1.2-1.1-1.6-1.6c-.5.6-1.1 1.1-1.7 1.6s-1.4.9-2.1 1.4c-.1-.3-.3-.5-.7-.8.6-.2 1.2-.5 1.9-1s1.4-1.1 2-1.8c-.5-.8-.9-1.6-1.2-2.5s-.6-2-.8-3.2c-.4.1-.7.1-1 .1zm2.5 2.7c.3 1 .7 1.7 1 2.2.3-.5.6-1.1 1-2s.6-1.9.9-3h-3.2-.4c.1.9.3 1.8.7 2.8z"/><path d="m396.5 388.5v1.5 3.6h1.5v.9c-.4 0-1 0-1.7 0h-7.9c-.5 0-.9 0-1.2 0v-.9h1.3v-3.5c0-.7 0-1.2 0-1.6h2.4c0-.8 0-1.4 0-1.7h1c0 .3-.1.8-.1 1.7h1.5c0-.8 0-1.4 0-1.7h1c0 .3-.1.9-.1 1.7zm-8.2 9.2c-.2-.3-.5-.5-.8-.8.8-.3 1.4-.6 1.9-.9s1-.7 1.4-1.1c.3.3.6.5.9.8-1.6 1-2.8 1.6-3.4 2zm2.6-6.8v-1.6h-1.5v1.6zm0 2.7v-1.9h-1.5v1.9zm2.4-2.7v-1.6h-1.5v1.6zm0 2.7v-1.9h-1.5v1.9zm.2 2 .7-.8c.4.2.9.5 1.6.8s1.3.7 1.8 1c-.3.3-.5.5-.8.8-.4-.3-1.5-1-3.3-1.8zm2-4.7v-1.6h-1.4v1.6zm0 2.7v-1.9h-1.4v1.9z"/></g></svg>